<?xml version="1.0" encoding="UTF-8" standalone="no"?>
<svg
   aria-hidden="true"
   role="img"
   class="iconify iconify--logos"
   width="31.879999"
   height="32"
   preserveAspectRatio="xMidYMid"
   viewBox="0 0 256 257"
   version="1.1"
   id="svg6"
   sodipodi:docname="progeta.svg"
   inkscape:version="1.3.2 (091e20e, 2023-11-25, custom)"
   xmlns:inkscape="http://www.inkscape.org/namespaces/inkscape"
   xmlns:sodipodi="http://sodipodi.sourceforge.net/DTD/sodipodi-0.dtd"
   xmlns="http://www.w3.org/2000/svg"
   xmlns:svg="http://www.w3.org/2000/svg">
  <sodipodi:namedview
     id="namedview6"
     pagecolor="#ffffff"
     bordercolor="#666666"
     borderopacity="1.0"
     inkscape:showpageshadow="2"
     inkscape:pageopacity="0.0"
     inkscape:pagecheckerboard="0"
     inkscape:deskcolor="#d1d1d1"
     inkscape:zoom="12.015625"
     inkscape:cx="-11.068921"
     inkscape:cy="23.094928"
     inkscape:window-width="2880"
     inkscape:window-height="1514"
     inkscape:window-x="5749"
     inkscape:window-y="-11"
     inkscape:window-maximized="1"
     inkscape:current-layer="g37" />
  <defs
     id="defs5">
    <linearGradient
       id="IconifyId1813088fe1fbc01fb466"
       x1="-0.0082799997"
       x2="0.57635999"
       y1="0.076519996"
       y2="0.78411001">
      <stop
         offset="0%"
         stop-color="#41D1FF"
         id="stop1" />
      <stop
         offset="100%"
         stop-color="#BD34FE"
         id="stop2" />
    </linearGradient>
    <linearGradient
       id="IconifyId1813088fe1fbc01fb467"
       x1="0.43375999"
       x2="0.50316"
       y1="0.02242"
       y2="0.89029998">
      <stop
         offset="0%"
         stop-color="#FFEA83"
         id="stop3" />
      <stop
         offset="8.333%"
         stop-color="#FFDD35"
         id="stop4" />
      <stop
         offset="100%"
         stop-color="#FFA800"
         id="stop5" />
    </linearGradient>
  </defs>
  <g
     transform="matrix(1.5407454,0,0,1.5407454,-157.80194,-264.2831)"
     inkscape:label="fiscal_facil"
     id="g37">
    <g
       id="g2"
       inkscape:label="logomarca"
       transform="matrix(0.77246739,0,0,0.77246739,-37.832427,105.84289)">
      <path
         d="m 270.2373,156.58447 c -4.06222,0.002 -8.12585,-0.007 -12.1875,0.006 1.13,8.27999 2.90055,16.47001 4.06055,24.75 4.24069,-0.0241 8.48148,-0.005 12.72217,-0.001 z"
         style="opacity:1;fill:#008000"
         id="path20" />
      <path
         d="m 230.80957,131.92969 h 0.16992 c 11.5597,0.0467 23.12048,0.005 34.68018,-0.006 l -4.62598,-24.92432 c -6.93568,-2.2e-4 -13.87443,-0.006 -20.80664,-0.009 -4.55973,0.116 -8.61979,-0.0282 -13.54834,0.0615 1.57,8.10999 2.86086,16.71745 4.13086,24.87744 z"
         style="opacity:1;fill:#008000"
         id="path18" />
      <path
         d="m 286.34766,107.01123 4.64062,25.00342 c 4.75737,0.0392 9.51461,0.0791 14.27197,0.16553 5.37,0.3 11.69007,1.01002 15.06006,5.77002 3.73,5.43999 4.40965,12.24957 5.63965,18.55957 -10.13828,0.0627 -20.2757,0.062 -30.41308,0.0586 l 4.59082,24.73682 c 6.69413,-0.0286 13.38887,-0.0856 20.083,-0.25489 4.18,-0.06 9.40879,-0.0504 12.00879,3.84961 2.65,4.56 2.53051,10.03981 3.77051,15.04981 3.72,18.05998 7.10973,36.20013 11.46973,54.12011 h 0.18017 c 13.83999,0.25 27.68076,-0.26007 41.51074,0.16993 -3.82999,-19.83998 -8.27029,-39.55989 -12.30029,-59.35987 -4.39999,-20.10998 -8.18973,-40.34941 -12.96972,-60.37939 -1.89,-7.97999 -4.83005,-16.40989 -11.54004,-21.62988 -6.23,-4.9 -14.45036,-5.83034 -22.11036,-5.84034 -14.62382,-0.0244 -29.25846,-0.0167 -43.89257,-0.019 z"
         style="opacity:1;fill:#008000"
         id="path4" />
      <path
         d="m 292.96289,279.01025 -4.64648,-25.03271 c -3.35201,-0.0226 -6.70415,-0.009 -10.05616,-0.0469 -6.52999,-0.22 -14.25047,0.25875 -19.23046,-4.78125 -4.58,-5.45999 -5.26022,-12.93922 -6.47022,-19.69921 10.40216,0.0138 20.80487,0.0218 31.20703,0.0176 l -4.59814,-24.76611 c -6.98338,0.0331 -13.96701,0.098 -20.94873,0.27832 -3.39,-0.02 -7.1703,0.20933 -10.0503,-1.93066 -2.60999,-1.85 -3.60914,-5.10938 -4.11914,-8.10938 -1.47,-8.52999 -3.12072,-17.01925 -4.99072,-25.46924 -2.63,-12.52998 -4.95008,-25.12102 -8.08008,-37.54101 h -0.16992 c -13.90999,-0.25 -27.82953,0.22988 -41.74951,-0.12012 7.74999,35.97996 15.15954,72.0308 22.76953,108.03076 2.95,11.62999 4.26976,25.2496 14.23975,33.32959 6.29999,4.77 14.48016,5.82033 22.16015,5.84033 14.91103,0.006 29.82237,0.002 44.7334,0 z"
         style="opacity:1;fill:#0171be;fill-opacity:1"
         id="path17" />
      <path
         d="m 313.64795,254.09033 4.62598,24.91992 c 3.31198,-2.5e-4 6.62404,0 9.93603,0 7.83999,-0.02 16.42635,0.009 24.11572,-0.0381 -1.29,-8.14999 -3.56578,-16.72235 -4.67578,-24.90235 h -0.18017 c -11.27424,-0.01 -22.54754,0.0192 -33.82178,0.0205 z"
         style="opacity:1;fill:#0171be;fill-opacity:1"
         id="path14" />
      <path
         d="m 304.47949,204.69141 4.60108,24.79101 c 3.78997,0.006 7.58014,-0.006 11.37011,0.007 -1.18,-8.3 -2.92111,-16.48931 -4.14111,-24.7793 -3.94269,0.004 -7.88673,-0.009 -11.83008,-0.019 z"
         style="opacity:1;fill:#0171be;fill-opacity:1"
         id="path11" />
    </g>
  </g>
</svg>
